<?xml version="1.0" encoding="UTF-8"?>
<!--Generator: Apple Native CoreSVG 341-->
<!DOCTYPE svg
PUBLIC "-//W3C//DTD SVG 1.1//EN"
       "http://www.w3.org/Graphics/SVG/1.1/DTD/svg11.dtd">
<svg version="1.1" xmlns="http://www.w3.org/2000/svg" xmlns:xlink="http://www.w3.org/1999/xlink" viewBox="0 0 90.3955 150.227">
 <g>
  <rect height="150.227" opacity="0" width="90.3955" x="0" y="0"/>
  <path d="M90.3955 75.1382C90.3955 48.3931 82.1279 23.3911 67.1865 2.42334C63.252-3.00537 55.2832 1.77588 59.4668 7.50342C73.5117 26.9771 81.0322 50.2856 81.0322 75.1382C81.0322 99.9409 73.4619 123.25 59.4668 142.723C55.3828 148.301 63.1025 153.431 67.1865 147.753C82.0781 126.835 90.3955 101.784 90.3955 75.1382Z" fill="#ea705d"/>
  <path d="M55.7812 75.1382C55.7812 55.2163 49.5557 36.5396 38.2002 21.2495C33.8672 15.4224 26.2969 21.0503 30.3809 26.3794C40.8398 40.2749 46.418 57.1587 46.418 75.1382C46.418 93.1177 40.8398 109.952 30.3809 123.847C26.2969 129.176 33.8672 134.754 38.2002 128.977C49.5557 113.687 55.7812 94.9605 55.7812 75.1382Z" fill="#ea705d"/>
  <path d="M21.2666 75.1382C21.2666 62.0396 16.7842 49.8374 8.71582 40.4243C4.08398 34.9458-2.44043 41.1216 0.946289 45.4546C8.66602 54.9175 11.9033 63.6333 11.9033 75.1382C11.9033 86.5933 8.66602 95.3589 0.996094 104.822C-2.39062 109.105 4.18359 115.131 8.71582 109.802C16.7842 100.389 21.2666 88.187 21.2666 75.1382Z" fill="#ea705d"/>
 </g>
</svg>
